ply
format ascii 1.0
comment Created by Blender 2.78 (sub 0) - www.blender.org, source file: 'axis.blend'
element vertex 152
property float x
property float y
property float z
property float nx
property float ny
property float nz
element face 68
property list uchar uint vertex_indices
end_header
-0.014523 -0.014523 0.761713 -0.000000 0.000000 -1.000000
-0.014523 0.014523 0.761713 -0.000000 0.000000 -1.000000
0.014523 0.014523 0.761713 -0.000000 0.000000 -1.000000
0.014523 -0.014523 0.761713 -0.000000 0.000000 -1.000000
-0.014523 -0.014523 -0.014523 0.000000 0.000000 1.000000
0.014523 -0.014523 -0.014523 0.000000 0.000000 1.000000
0.014523 0.014523 -0.014523 0.000000 0.000000 1.000000
-0.014523 0.014523 -0.014523 0.000000 0.000000 1.000000
-0.014523 -0.014523 0.761713 1.000000 -0.000000 0.000000
-0.014523 -0.014523 -0.014523 1.000000 -0.000000 0.000000
-0.014523 0.014523 -0.014523 1.000000 -0.000000 0.000000
-0.014523 0.014523 0.761713 1.000000 -0.000000 0.000000
-0.014523 0.014523 0.761713 -0.000000 -1.000000 -0.000000
-0.014523 0.014523 -0.014523 -0.000000 -1.000000 -0.000000
0.014523 0.014523 -0.014523 -0.000000 -1.000000 -0.000000
0.014523 0.014523 0.761713 -0.000000 -1.000000 -0.000000
0.014523 0.014523 0.761713 -1.000000 0.000000 -0.000000
0.014523 0.014523 -0.014523 -1.000000 0.000000 -0.000000
0.014523 -0.014523 -0.014523 -1.000000 0.000000 -0.000000
0.014523 -0.014523 0.761713 -1.000000 0.000000 -0.000000
-0.014523 -0.014523 -0.014523 0.000000 1.000000 0.000000
-0.014523 -0.014523 0.761713 0.000000 1.000000 0.000000
0.014523 -0.014523 0.761713 0.000000 1.000000 0.000000
0.014523 -0.014523 -0.014523 0.000000 1.000000 0.000000
-0.002199 0.040935 0.731160 0.087754 0.890976 0.445489
-0.002199 -0.001356 0.815744 0.087754 0.890976 0.445489
0.006051 0.040123 0.731160 0.087754 0.890976 0.445489
0.006051 0.040123 0.731160 0.259888 0.856737 0.445489
-0.002199 -0.001356 0.815744 0.259888 0.856737 0.445489
0.013985 0.037716 0.731160 0.259888 0.856737 0.445489
0.013985 0.037716 0.731160 0.422036 0.789573 0.445489
-0.002199 -0.001356 0.815744 0.422036 0.789573 0.445489
0.021297 0.033808 0.731160 0.422036 0.789573 0.445489
0.021297 0.033808 0.731160 0.567965 0.692067 0.445489
-0.002199 -0.001356 0.815744 0.567965 0.692067 0.445489
0.027705 0.028548 0.731160 0.567965 0.692067 0.445489
0.027705 0.028548 0.731160 0.692067 0.567965 0.445489
-0.002199 -0.001356 0.815744 0.692067 0.567965 0.445489
0.032965 0.022140 0.731160 0.692067 0.567965 0.445489
0.032965 0.022140 0.731160 0.789573 0.422036 0.445489
-0.002199 -0.001356 0.815744 0.789573 0.422036 0.445489
0.036873 0.014828 0.731160 0.789573 0.422036 0.445489
0.036873 0.014828 0.731160 0.856737 0.259888 0.445489
-0.002199 -0.001356 0.815744 0.856737 0.259888 0.445489
0.039280 0.006894 0.731160 0.856737 0.259888 0.445489
0.039280 0.006894 0.731160 0.890977 0.087754 0.445489
-0.002199 -0.001356 0.815744 0.890977 0.087754 0.445489
0.040092 -0.001356 0.731160 0.890977 0.087754 0.445489
0.040092 -0.001356 0.731160 0.890977 -0.087754 0.445489
-0.002199 -0.001356 0.815744 0.890977 -0.087754 0.445489
0.039280 -0.009607 0.731160 0.890977 -0.087754 0.445489
0.039280 -0.009607 0.731160 0.856737 -0.259888 0.445489
-0.002199 -0.001356 0.815744 0.856737 -0.259888 0.445489
0.036873 -0.017541 0.731160 0.856737 -0.259888 0.445489
0.036873 -0.017541 0.731160 0.789573 -0.422036 0.445489
-0.002199 -0.001356 0.815744 0.789573 -0.422036 0.445489
0.032965 -0.024852 0.731160 0.789573 -0.422036 0.445489
0.032965 -0.024852 0.731160 0.692067 -0.567964 0.445489
-0.002199 -0.001356 0.815744 0.692067 -0.567964 0.445489
0.027705 -0.031261 0.731160 0.692067 -0.567964 0.445489
0.027705 -0.031261 0.731160 0.567964 -0.692067 0.445488
-0.002199 -0.001356 0.815744 0.567964 -0.692067 0.445488
0.021297 -0.036521 0.731160 0.567964 -0.692067 0.445488
0.021297 -0.036521 0.731160 0.422037 -0.789573 0.445489
-0.002199 -0.001356 0.815744 0.422037 -0.789573 0.445489
0.013985 -0.040429 0.731160 0.422037 -0.789573 0.445489
0.013985 -0.040429 0.731160 0.259888 -0.856737 0.445489
-0.002199 -0.001356 0.815744 0.259888 -0.856737 0.445489
0.006051 -0.042836 0.731160 0.259888 -0.856737 0.445489
0.006051 -0.042836 0.731160 0.087754 -0.890977 0.445489
-0.002199 -0.001356 0.815744 0.087754 -0.890977 0.445489
-0.002199 -0.043648 0.731160 0.087754 -0.890977 0.445489
-0.002199 -0.043648 0.731160 -0.087754 -0.890977 0.445489
-0.002199 -0.001356 0.815744 -0.087754 -0.890977 0.445489
-0.010450 -0.042836 0.731160 -0.087754 -0.890977 0.445489
-0.010450 -0.042836 0.731160 -0.259889 -0.856737 0.445489
-0.002199 -0.001356 0.815744 -0.259889 -0.856737 0.445489
-0.018384 -0.040429 0.731160 -0.259889 -0.856737 0.445489
-0.018384 -0.040429 0.731160 -0.422036 -0.789573 0.445489
-0.002199 -0.001356 0.815744 -0.422036 -0.789573 0.445489
-0.025695 -0.036521 0.731160 -0.422036 -0.789573 0.445489
-0.025695 -0.036521 0.731160 -0.567964 -0.692067 0.445489
-0.002199 -0.001356 0.815744 -0.567964 -0.692067 0.445489
-0.032104 -0.031261 0.731160 -0.567964 -0.692067 0.445489
-0.032104 -0.031261 0.731160 -0.692067 -0.567964 0.445489
-0.002199 -0.001356 0.815744 -0.692067 -0.567964 0.445489
-0.037364 -0.024852 0.731160 -0.692067 -0.567964 0.445489
-0.037364 -0.024852 0.731160 -0.789574 -0.422034 0.445489
-0.002199 -0.001356 0.815744 -0.789574 -0.422034 0.445489
-0.041272 -0.017541 0.731160 -0.789574 -0.422034 0.445489
-0.041272 -0.017541 0.731160 -0.856737 -0.259888 0.445488
-0.002199 -0.001356 0.815744 -0.856737 -0.259888 0.445488
-0.043679 -0.009607 0.731160 -0.856737 -0.259888 0.445488
-0.043679 -0.009607 0.731160 -0.890977 -0.087754 0.445489
-0.002199 -0.001356 0.815744 -0.890977 -0.087754 0.445489
-0.044491 -0.001356 0.731160 -0.890977 -0.087754 0.445489
-0.044491 -0.001356 0.731160 -0.890977 0.087754 0.445489
-0.002199 -0.001356 0.815744 -0.890977 0.087754 0.445489
-0.043679 0.006894 0.731160 -0.890977 0.087754 0.445489
-0.043679 0.006894 0.731160 -0.856736 0.259891 0.445489
-0.002199 -0.001356 0.815744 -0.856736 0.259891 0.445489
-0.041272 0.014828 0.731160 -0.856736 0.259891 0.445489
-0.041272 0.014828 0.731160 -0.789573 0.422037 0.445489
-0.002199 -0.001356 0.815744 -0.789573 0.422037 0.445489
-0.037364 0.022140 0.731160 -0.789573 0.422037 0.445489
-0.037364 0.022140 0.731160 -0.692067 0.567965 0.445489
-0.002199 -0.001356 0.815744 -0.692067 0.567965 0.445489
-0.032104 0.028548 0.731160 -0.692067 0.567965 0.445489
-0.032104 0.028548 0.731160 -0.567964 0.692067 0.445489
-0.002199 -0.001356 0.815744 -0.567964 0.692067 0.445489
-0.025695 0.033808 0.731160 -0.567964 0.692067 0.445489
-0.025695 0.033808 0.731160 -0.422034 0.789574 0.445489
-0.002199 -0.001356 0.815744 -0.422034 0.789574 0.445489
-0.018384 0.037716 0.731160 -0.422034 0.789574 0.445489
-0.018384 0.037716 0.731160 -0.259886 0.856737 0.445489
-0.002199 -0.001356 0.815744 -0.259886 0.856737 0.445489
-0.010450 0.040123 0.731160 -0.259886 0.856737 0.445489
-0.010450 0.040123 0.731160 -0.087753 0.890977 0.445489
-0.002199 -0.001356 0.815744 -0.087753 0.890977 0.445489
-0.002199 0.040935 0.731160 -0.087753 0.890977 0.445489
-0.010450 0.040123 0.731160 -0.000000 0.000000 -1.000000
-0.002199 0.040935 0.731160 -0.000000 0.000000 -1.000000
0.006051 0.040123 0.731160 -0.000000 0.000000 -1.000000
0.013985 0.037716 0.731160 0.000000 0.000000 -1.000000
0.021297 0.033808 0.731160 0.000000 0.000000 -1.000000
0.027705 0.028548 0.731160 0.000000 0.000000 -1.000000
0.032965 0.022140 0.731160 0.000000 0.000000 -1.000000
0.036873 0.014828 0.731160 0.000000 0.000000 -1.000000
0.039280 0.006894 0.731160 0.000000 0.000000 -1.000000
0.040092 -0.001356 0.731160 0.000000 0.000000 -1.000000
0.039280 -0.009607 0.731160 0.000000 0.000000 -1.000000
0.036873 -0.017541 0.731160 0.000000 0.000000 -1.000000
0.032965 -0.024852 0.731160 0.000000 0.000000 -1.000000
0.027705 -0.031261 0.731160 0.000000 0.000000 -1.000000
0.021297 -0.036521 0.731160 0.000000 0.000000 -1.000000
0.013985 -0.040429 0.731160 0.000000 0.000000 -1.000000
0.006051 -0.042836 0.731160 0.000000 0.000000 -1.000000
-0.002199 -0.043648 0.731160 0.000000 0.000000 -1.000000
-0.010450 -0.042836 0.731160 0.000000 0.000000 -1.000000
-0.018384 -0.040429 0.731160 0.000000 0.000000 -1.000000
-0.025695 -0.036521 0.731160 0.000000 0.000000 -1.000000
-0.032104 -0.031261 0.731160 0.000000 0.000000 -1.000000
-0.037364 -0.024852 0.731160 0.000000 0.000000 -1.000000
-0.041272 -0.017541 0.731160 0.000000 0.000000 -1.000000
-0.043679 -0.009607 0.731160 0.000000 0.000000 -1.000000
-0.044491 -0.001356 0.731160 0.000000 -0.000000 -1.000000
-0.043679 0.006894 0.731160 0.000000 -0.000000 -1.000000
-0.041272 0.014828 0.731160 0.000000 0.000000 -1.000000
-0.037364 0.022140 0.731160 0.000000 0.000000 -1.000000
-0.032104 0.028548 0.731160 0.000000 0.000000 -1.000000
-0.025695 0.033808 0.731160 0.000000 0.000000 -1.000000
-0.018384 0.037716 0.731160 0.000000 0.000000 -1.000000
4 0 1 2 3
4 4 5 6 7
4 8 9 10 11
4 12 13 14 15
4 16 17 18 19
4 20 21 22 23
3 24 25 26
3 27 28 29
3 30 31 32
3 33 34 35
3 36 37 38
3 39 40 41
3 42 43 44
3 45 46 47
3 48 49 50
3 51 52 53
3 54 55 56
3 57 58 59
3 60 61 62
3 63 64 65
3 66 67 68
3 69 70 71
3 72 73 74
3 75 76 77
3 78 79 80
3 81 82 83
3 84 85 86
3 87 88 89
3 90 91 92
3 93 94 95
3 96 97 98
3 99 100 101
3 102 103 104
3 105 106 107
3 108 109 110
3 111 112 113
3 114 115 116
3 117 118 119
3 120 121 122
3 122 123 124
3 124 125 126
3 126 127 128
3 128 129 130
3 130 131 132
3 132 133 134
3 134 135 136
3 136 137 138
3 138 139 140
3 140 141 142
3 142 143 144
3 144 145 146
3 146 147 148
3 148 149 150
3 150 151 120
3 120 122 124
3 124 126 128
3 128 130 132
3 132 134 136
3 136 138 140
3 140 142 144
3 144 146 148
3 148 150 120
3 120 124 128
3 128 132 136
3 136 140 144
3 144 148 120
3 120 128 136
3 136 144 120
