ply
format ascii 1.0
comment Created by Blender 2.78 (sub 0) - www.blender.org, source file: 'untitled.blend'
element vertex 620
property float x
property float y
property float z
property float nx
property float ny
property float nz
element face 204
property list uchar uint vertex_indices
end_header
-0.125340 0.003771 -0.000483 -0.445507 0.890977 0.087660
-0.132701 0.000091 -0.000485 -0.445507 0.890977 0.087660
-0.125340 0.003700 0.000235 -0.445507 0.890977 0.087660
-0.125340 0.003700 0.000235 -0.445544 0.856736 0.259797
-0.132701 0.000091 -0.000485 -0.445544 0.856736 0.259797
-0.125340 0.003491 0.000925 -0.445544 0.856736 0.259797
-0.125340 0.003491 0.000925 -0.445578 0.789572 0.421944
-0.132701 0.000091 -0.000485 -0.445578 0.789572 0.421944
-0.125340 0.003151 0.001561 -0.445578 0.789572 0.421944
-0.125340 0.003151 0.001561 -0.445608 0.692069 0.567867
-0.132701 0.000091 -0.000485 -0.445608 0.692069 0.567867
-0.125340 0.002693 0.002119 -0.445608 0.692069 0.567867
-0.125340 0.002693 0.002119 -0.445635 0.567963 0.691974
-0.132701 0.000091 -0.000485 -0.445635 0.567963 0.691974
-0.125341 0.002135 0.002577 -0.445635 0.567963 0.691974
-0.125341 0.002135 0.002577 -0.445655 0.422040 0.789477
-0.132701 0.000091 -0.000485 -0.445655 0.422040 0.789477
-0.125341 0.001499 0.002917 -0.445655 0.422040 0.789477
-0.125341 0.001499 0.002917 -0.445671 0.259909 0.856636
-0.132701 0.000091 -0.000485 -0.445671 0.259909 0.856636
-0.125341 0.000809 0.003126 -0.445671 0.259909 0.856636
-0.125341 0.000809 0.003126 -0.445679 0.087752 0.890881
-0.132701 0.000091 -0.000485 -0.445679 0.087752 0.890881
-0.125341 0.000091 0.003197 -0.445679 0.087752 0.890881
-0.125341 0.000091 0.003197 -0.445678 -0.087771 0.890880
-0.132701 0.000091 -0.000485 -0.445678 -0.087771 0.890880
-0.125341 -0.000627 0.003126 -0.445678 -0.087771 0.890880
-0.125341 -0.000627 0.003126 -0.445671 -0.259875 0.856646
-0.132701 0.000091 -0.000485 -0.445671 -0.259875 0.856646
-0.125341 -0.001318 0.002917 -0.445671 -0.259875 0.856646
-0.125341 -0.001318 0.002917 -0.445657 -0.422039 0.789477
-0.132701 0.000091 -0.000485 -0.445657 -0.422039 0.789477
-0.125341 -0.001954 0.002577 -0.445657 -0.422039 0.789477
-0.125341 -0.001954 0.002577 -0.445635 -0.567974 0.691964
-0.132701 0.000091 -0.000485 -0.445635 -0.567974 0.691964
-0.125340 -0.002512 0.002119 -0.445635 -0.567974 0.691964
-0.125340 -0.002512 0.002119 -0.445609 -0.692061 0.567877
-0.132701 0.000091 -0.000485 -0.445609 -0.692061 0.567877
-0.125340 -0.002970 0.001561 -0.445609 -0.692061 0.567877
-0.125340 -0.002970 0.001561 -0.445578 -0.789576 0.421936
-0.132701 0.000091 -0.000485 -0.445578 -0.789576 0.421936
-0.125340 -0.003310 0.000925 -0.445578 -0.789576 0.421936
-0.125340 -0.003310 0.000925 -0.445543 -0.856738 0.259791
-0.132701 0.000091 -0.000485 -0.445543 -0.856738 0.259791
-0.125340 -0.003519 0.000235 -0.445543 -0.856738 0.259791
-0.125340 -0.003519 0.000235 -0.445507 -0.890977 0.087660
-0.132701 0.000091 -0.000485 -0.445507 -0.890977 0.087660
-0.125340 -0.003590 -0.000483 -0.445507 -0.890977 0.087660
-0.125340 -0.003590 -0.000483 -0.445470 -0.890977 -0.087847
-0.132701 0.000091 -0.000485 -0.445470 -0.890977 -0.087847
-0.125340 -0.003519 -0.001201 -0.445470 -0.890977 -0.087847
-0.125340 -0.003519 -0.001201 -0.445434 -0.856736 -0.259984
-0.132701 0.000091 -0.000485 -0.445434 -0.856736 -0.259984
-0.125340 -0.003310 -0.001892 -0.445434 -0.856736 -0.259984
-0.125340 -0.003310 -0.001892 -0.445399 -0.789572 -0.422133
-0.132701 0.000091 -0.000485 -0.445399 -0.789572 -0.422133
-0.125339 -0.002970 -0.002528 -0.445399 -0.789572 -0.422133
-0.125339 -0.002970 -0.002528 -0.445368 -0.692068 -0.568057
-0.132701 0.000091 -0.000485 -0.445368 -0.692068 -0.568057
-0.125339 -0.002512 -0.003086 -0.445368 -0.692068 -0.568057
-0.125339 -0.002512 -0.003086 -0.445342 -0.567959 -0.692166
-0.132701 0.000091 -0.000485 -0.445342 -0.567959 -0.692166
-0.125339 -0.001954 -0.003544 -0.445342 -0.567959 -0.692166
-0.125339 -0.001954 -0.003544 -0.445321 -0.422035 -0.789668
-0.132701 0.000091 -0.000485 -0.445321 -0.422035 -0.789668
-0.125339 -0.001318 -0.003884 -0.445321 -0.422035 -0.789668
-0.125339 -0.001318 -0.003884 -0.445306 -0.259891 -0.856830
-0.132701 0.000091 -0.000485 -0.445306 -0.259891 -0.856830
-0.125339 -0.000627 -0.004093 -0.445306 -0.259891 -0.856830
-0.125339 -0.000627 -0.004093 -0.445299 -0.087743 -0.891072
-0.132701 0.000091 -0.000485 -0.445299 -0.087743 -0.891072
-0.125339 0.000091 -0.004164 -0.445299 -0.087743 -0.891072
-0.125339 0.000091 -0.004164 -0.445299 0.087753 -0.891072
-0.132701 0.000091 -0.000485 -0.445299 0.087753 -0.891072
-0.125339 0.000809 -0.004093 -0.445299 0.087753 -0.891072
-0.125339 0.000809 -0.004093 -0.445307 0.259875 -0.856836
-0.132701 0.000091 -0.000485 -0.445307 0.259875 -0.856836
-0.125339 0.001499 -0.003884 -0.445307 0.259875 -0.856836
-0.125339 0.001499 -0.003884 -0.445321 0.422042 -0.789664
-0.132701 0.000091 -0.000485 -0.445321 0.422042 -0.789664
-0.125339 0.002135 -0.003544 -0.445321 0.422042 -0.789664
-0.125339 0.002135 -0.003544 -0.445342 0.567963 -0.692162
-0.132701 0.000091 -0.000485 -0.445342 0.567963 -0.692162
-0.125339 0.002693 -0.003086 -0.445342 0.567963 -0.692162
-0.125339 0.002693 -0.003086 -0.445368 0.692066 -0.568059
-0.132701 0.000091 -0.000485 -0.445368 0.692066 -0.568059
-0.125339 0.003151 -0.002528 -0.445368 0.692066 -0.568059
-0.125339 0.003151 -0.002528 -0.445399 0.789577 -0.422124
-0.132701 0.000091 -0.000485 -0.445399 0.789577 -0.422124
-0.125340 0.003491 -0.001892 -0.445399 0.789577 -0.422124
-0.125340 0.003491 -0.001892 -0.445433 0.856737 -0.259982
-0.132701 0.000091 -0.000485 -0.445433 0.856737 -0.259982
-0.125340 0.003700 -0.001201 -0.445433 0.856737 -0.259982
-0.125340 0.003700 -0.001201 -0.445470 0.890977 -0.087847
-0.132701 0.000091 -0.000485 -0.445470 0.890977 -0.087847
-0.125340 0.003771 -0.000483 -0.445470 0.890977 -0.087847
-0.125340 0.003700 -0.001201 1.000000 0.000000 0.000208
-0.125340 0.003771 -0.000483 1.000000 0.000000 0.000208
-0.125340 0.003700 0.000235 1.000000 0.000000 0.000208
-0.125340 0.003700 0.000235 1.000000 0.000022 0.000222
-0.125340 0.003491 0.000925 1.000000 0.000022 0.000222
-0.125340 0.003151 0.001561 1.000000 0.000022 0.000222
-0.125340 0.003151 0.001561 1.000000 0.000046 0.000252
-0.125340 0.002693 0.002119 1.000000 0.000046 0.000252
-0.125341 0.002135 0.002577 1.000000 0.000046 0.000252
-0.125341 0.002135 0.002577 1.000000 0.000035 0.000328
-0.125341 0.001499 0.002917 1.000000 0.000035 0.000328
-0.125341 0.000809 0.003126 1.000000 0.000035 0.000328
-0.125341 0.000809 0.003126 1.000000 -0.000000 0.000211
-0.125341 0.000091 0.003197 1.000000 -0.000000 0.000211
-0.125341 -0.000627 0.003126 1.000000 -0.000000 0.000211
-0.125341 -0.000627 0.003126 1.000000 -0.000035 0.000328
-0.125341 -0.001318 0.002917 1.000000 -0.000035 0.000328
-0.125341 -0.001954 0.002577 1.000000 -0.000035 0.000328
-0.125341 -0.001954 0.002577 1.000000 -0.000046 0.000252
-0.125340 -0.002512 0.002119 1.000000 -0.000046 0.000252
-0.125340 -0.002970 0.001561 1.000000 -0.000046 0.000252
-0.125340 -0.002970 0.001561 1.000000 -0.000022 0.000222
-0.125340 -0.003310 0.000925 1.000000 -0.000022 0.000222
-0.125340 -0.003519 0.000235 1.000000 -0.000022 0.000222
-0.125340 -0.003519 0.000235 1.000000 -0.000000 0.000208
-0.125340 -0.003590 -0.000483 1.000000 -0.000000 0.000208
-0.125340 -0.003519 -0.001201 1.000000 -0.000000 0.000208
-0.125340 -0.003519 -0.001201 1.000000 0.000022 0.000222
-0.125340 -0.003310 -0.001892 1.000000 0.000022 0.000222
-0.125339 -0.002970 -0.002528 1.000000 0.000022 0.000222
-0.125339 -0.002970 -0.002528 1.000000 0.000046 0.000252
-0.125339 -0.002512 -0.003086 1.000000 0.000046 0.000252
-0.125339 -0.001954 -0.003544 1.000000 0.000046 0.000252
-0.125339 -0.001954 -0.003544 1.000000 0.000085 0.000421
-0.125339 -0.001318 -0.003884 1.000000 0.000085 0.000421
-0.125339 -0.000627 -0.004093 1.000000 0.000085 0.000421
-0.125339 -0.000627 -0.004093 1.000000 -0.000000 0.000421
-0.125339 0.000091 -0.004164 1.000000 -0.000000 0.000421
-0.125339 0.000809 -0.004093 1.000000 -0.000000 0.000421
-0.125339 0.000809 -0.004093 1.000000 -0.000085 0.000421
-0.125339 0.001499 -0.003884 1.000000 -0.000085 0.000421
-0.125339 0.002135 -0.003544 1.000000 -0.000085 0.000421
-0.125339 0.002135 -0.003544 1.000000 0.000103 0.000103
-0.125339 0.002693 -0.003086 1.000000 0.000103 0.000103
-0.125339 0.003151 -0.002528 1.000000 0.000103 0.000103
-0.125339 0.003151 -0.002528 1.000000 -0.000022 0.000222
-0.125340 0.003491 -0.001892 1.000000 -0.000022 0.000222
-0.125340 0.003700 -0.001201 1.000000 -0.000022 0.000222
-0.125340 0.003700 -0.001201 1.000000 -0.000014 0.000208
-0.125340 0.003700 0.000235 1.000000 -0.000014 0.000208
-0.125340 0.003151 0.001561 1.000000 -0.000014 0.000208
-0.125340 0.003151 0.001561 1.000000 -0.000027 0.000178
-0.125341 0.002135 0.002577 1.000000 -0.000027 0.000178
-0.125341 0.000809 0.003126 1.000000 -0.000027 0.000178
-0.125341 0.000809 0.003126 1.000000 -0.000000 0.000244
-0.125341 -0.000627 0.003126 1.000000 -0.000000 0.000244
-0.125341 -0.001954 0.002577 1.000000 -0.000000 0.000244
-0.125341 -0.001954 0.002577 1.000000 -0.000014 0.000219
-0.125340 -0.002970 0.001561 1.000000 -0.000014 0.000219
-0.125340 -0.003519 0.000235 1.000000 -0.000014 0.000219
-0.125340 -0.003519 0.000235 1.000000 -0.000014 0.000208
-0.125340 -0.003519 -0.001201 1.000000 -0.000014 0.000208
-0.125339 -0.002970 -0.002528 1.000000 -0.000014 0.000208
-0.125339 -0.002970 -0.002528 1.000000 -0.000008 0.000197
-0.125339 -0.001954 -0.003544 1.000000 -0.000008 0.000197
-0.125339 -0.000627 -0.004093 1.000000 -0.000008 0.000197
-0.125339 -0.000627 -0.004093 1.000000 -0.000000 0.000217
-0.125339 0.000809 -0.004093 1.000000 -0.000000 0.000217
-0.125339 0.002135 -0.003544 1.000000 -0.000000 0.000217
-0.125339 0.002135 -0.003544 1.000000 -0.000014 0.000219
-0.125339 0.003151 -0.002528 1.000000 -0.000014 0.000219
-0.125340 0.003700 -0.001201 1.000000 -0.000014 0.000219
-0.125340 0.003700 -0.001201 1.000000 -0.000007 0.000209
-0.125340 0.003151 0.001561 1.000000 -0.000007 0.000209
-0.125341 0.000809 0.003126 1.000000 -0.000007 0.000209
-0.125341 0.000809 0.003126 1.000000 0.000008 0.000205
-0.125341 -0.001954 0.002577 1.000000 0.000008 0.000205
-0.125340 -0.003519 0.000235 1.000000 0.000008 0.000205
-0.125340 -0.003519 0.000235 1.000000 0.000001 0.000210
-0.125339 -0.002970 -0.002528 1.000000 0.000001 0.000210
-0.125339 -0.000627 -0.004093 1.000000 0.000001 0.000210
-0.125339 -0.000627 -0.004093 1.000000 0.000002 0.000209
-0.125339 0.002135 -0.003544 1.000000 0.000002 0.000209
-0.125340 0.003700 -0.001201 1.000000 0.000002 0.000209
-0.125340 0.003700 -0.001201 1.000000 0.000001 0.000214
-0.125341 0.000809 0.003126 1.000000 0.000001 0.000214
-0.125340 -0.003519 0.000235 1.000000 0.000001 0.000214
-0.125340 0.003700 -0.001201 1.000000 0.000001 0.000210
0.000963 0.126616 0.000162 0.000003 0.005832 0.999983
-0.000839 0.126617 0.000162 0.000003 0.005832 0.999983
-0.000901 -0.000895 0.000906 0.000003 0.005832 0.999983
0.000900 -0.000896 0.000906 0.000003 0.005832 0.999983
0.000963 0.126605 -0.001639 0.000001 -0.005832 -0.999983
0.000900 -0.000906 -0.000895 0.000001 -0.005832 -0.999983
-0.000901 -0.000906 -0.000895 0.000001 -0.005832 -0.999983
-0.000839 0.126606 -0.001639 0.000001 -0.005832 -0.999983
0.000963 0.126616 0.000162 0.000480 0.999983 -0.005823
0.000963 0.126605 -0.001639 0.000480 0.999983 -0.005823
-0.000839 0.126606 -0.001639 0.000480 0.999983 -0.005823
-0.000839 0.126617 0.000162 0.000480 0.999983 -0.005823
-0.000839 0.126617 0.000162 -1.000000 0.000488 0.000000
-0.000839 0.126606 -0.001639 -1.000000 0.000488 0.000000
-0.000901 -0.000906 -0.000895 -1.000000 0.000488 0.000000
-0.000901 -0.000895 0.000906 -1.000000 0.000488 0.000000
-0.000901 -0.000895 0.000906 -0.000488 -0.999983 0.005833
-0.000901 -0.000906 -0.000895 -0.000488 -0.999983 0.005833
0.000900 -0.000906 -0.000895 -0.000488 -0.999983 0.005833
0.000900 -0.000896 0.000906 -0.000488 -0.999983 0.005833
0.000963 0.126605 -0.001639 1.000000 -0.000488 -0.000000
0.000963 0.126616 0.000162 1.000000 -0.000488 -0.000000
0.000900 -0.000896 0.000906 1.000000 -0.000488 -0.000000
0.000900 -0.000906 -0.000895 1.000000 -0.000488 -0.000000
0.003447 0.123246 -0.000483 0.891123 0.445215 0.087652
-0.000232 0.130608 -0.000485 0.891123 0.445215 0.087652
0.003376 0.123246 0.000235 0.891123 0.445215 0.087652
0.003376 0.123246 0.000235 0.856881 0.445263 0.259802
-0.000232 0.130608 -0.000485 0.856881 0.445263 0.259802
0.003166 0.123246 0.000925 0.856881 0.445263 0.259802
0.003166 0.123246 0.000925 0.789724 0.445319 0.421932
-0.000232 0.130608 -0.000485 0.789724 0.445319 0.421932
0.002826 0.123246 0.001561 0.789724 0.445319 0.421932
0.002826 0.123246 0.001561 0.692216 0.445382 0.567866
-0.000232 0.130608 -0.000485 0.692216 0.445382 0.567866
0.002369 0.123246 0.002119 0.692216 0.445382 0.567866
0.002369 0.123246 0.002119 0.568103 0.445449 0.691978
-0.000232 0.130608 -0.000485 0.568103 0.445449 0.691978
0.001811 0.123247 0.002577 0.568103 0.445449 0.691978
0.001811 0.123247 0.002577 0.422178 0.445517 0.789481
-0.000232 0.130608 -0.000485 0.422178 0.445517 0.789481
0.001175 0.123247 0.002917 0.422178 0.445517 0.789481
0.001175 0.123247 0.002917 0.260036 0.445584 0.856642
-0.000232 0.130608 -0.000485 0.260036 0.445584 0.856642
0.000484 0.123247 0.003126 0.260036 0.445584 0.856642
0.000484 0.123247 0.003126 0.087877 0.445647 0.890885
-0.000232 0.130608 -0.000485 0.087877 0.445647 0.890885
-0.000234 0.123248 0.003197 0.087877 0.445647 0.890885
-0.000234 0.123248 0.003197 -0.087591 0.445704 0.890885
-0.000232 0.130608 -0.000485 -0.087591 0.445704 0.890885
-0.000952 0.123248 0.003126 -0.087591 0.445704 0.890885
-0.000952 0.123248 0.003126 -0.259722 0.445755 0.856649
-0.000232 0.130608 -0.000485 -0.259722 0.445755 0.856649
-0.001642 0.123248 0.002917 -0.259722 0.445755 0.856649
-0.001642 0.123248 0.002917 -0.421899 0.445794 0.789474
-0.000232 0.130608 -0.000485 -0.421899 0.445794 0.789474
-0.002279 0.123248 0.002577 -0.421899 0.445794 0.789474
-0.002279 0.123248 0.002577 -0.567819 0.445821 0.691972
-0.000232 0.130608 -0.000485 -0.567819 0.445821 0.691972
-0.002837 0.123248 0.002119 -0.567819 0.445821 0.691972
-0.002837 0.123248 0.002119 -0.691926 0.445835 0.567864
-0.000232 0.130608 -0.000485 -0.691926 0.445835 0.567864
-0.003294 0.123248 0.001561 -0.691926 0.445835 0.567864
-0.003294 0.123248 0.001561 -0.789426 0.445836 0.421944
-0.000232 0.130608 -0.000485 -0.789426 0.445836 0.421944
-0.003634 0.123248 0.000925 -0.789426 0.445836 0.421944
-0.003634 0.123248 0.000925 -0.856591 0.445823 0.259794
-0.000232 0.130608 -0.000485 -0.856591 0.445823 0.259794
-0.003844 0.123248 0.000235 -0.856591 0.445823 0.259794
-0.003844 0.123248 0.000235 -0.890831 0.445798 0.087662
-0.000232 0.130608 -0.000485 -0.890831 0.445798 0.087662
-0.003915 0.123248 -0.000483 -0.890831 0.445798 0.087662
-0.003915 0.123248 -0.000483 -0.890830 0.445761 -0.087854
-0.000232 0.130608 -0.000485 -0.890830 0.445761 -0.087854
-0.003844 0.123248 -0.001201 -0.890830 0.445761 -0.087854
-0.003844 0.123248 -0.001201 -0.856593 0.445713 -0.259979
-0.000232 0.130608 -0.000485 -0.856593 0.445713 -0.259979
-0.003634 0.123248 -0.001892 -0.856593 0.445713 -0.259979
-0.003634 0.123248 -0.001892 -0.789428 0.445657 -0.422129
-0.000232 0.130608 -0.000485 -0.789428 0.445657 -0.422129
-0.003294 0.123247 -0.002528 -0.789428 0.445657 -0.422129
-0.003294 0.123247 -0.002528 -0.691928 0.445595 -0.568050
-0.000232 0.130608 -0.000485 -0.691928 0.445595 -0.568050
-0.002837 0.123247 -0.003086 -0.691928 0.445595 -0.568050
-0.002837 0.123247 -0.003086 -0.567822 0.445529 -0.692158
-0.000232 0.130608 -0.000485 -0.567822 0.445529 -0.692158
-0.002279 0.123247 -0.003544 -0.567822 0.445529 -0.692158
-0.002279 0.123247 -0.003544 -0.421868 0.445460 -0.789679
-0.000232 0.130608 -0.000485 -0.421868 0.445460 -0.789679
-0.001642 0.123246 -0.003884 -0.421868 0.445460 -0.789679
-0.001642 0.123246 -0.003884 -0.259751 0.445392 -0.856829
-0.000232 0.130608 -0.000485 -0.259751 0.445392 -0.856829
-0.000952 0.123246 -0.004093 -0.259751 0.445392 -0.856829
-0.000952 0.123246 -0.004093 -0.087609 0.445329 -0.891070
-0.000232 0.130608 -0.000485 -0.087609 0.445329 -0.891070
-0.000234 0.123246 -0.004164 -0.087609 0.445329 -0.891070
-0.000234 0.123246 -0.004164 0.087905 0.445271 -0.891070
-0.000232 0.130608 -0.000485 0.087905 0.445271 -0.891070
0.000484 0.123246 -0.004093 0.087905 0.445271 -0.891070
0.000484 0.123246 -0.004093 0.260036 0.445222 -0.856831
-0.000232 0.130608 -0.000485 0.260036 0.445222 -0.856831
0.001175 0.123246 -0.003884 0.260036 0.445222 -0.856831
0.001175 0.123246 -0.003884 0.422174 0.445184 -0.789672
-0.000232 0.130608 -0.000485 0.422174 0.445184 -0.789672
0.001811 0.123245 -0.003544 0.422174 0.445184 -0.789672
0.001811 0.123245 -0.003544 0.568122 0.445156 -0.692151
-0.000232 0.130608 -0.000485 0.568122 0.445156 -0.692151
0.002369 0.123245 -0.003086 0.568122 0.445156 -0.692151
0.002369 0.123245 -0.003086 0.692211 0.445141 -0.568061
-0.000232 0.130608 -0.000485 0.692211 0.445141 -0.568061
0.002826 0.123245 -0.002528 0.692211 0.445141 -0.568061
0.002826 0.123245 -0.002528 0.789719 0.445141 -0.422131
-0.000232 0.130608 -0.000485 0.789719 0.445141 -0.422131
0.003166 0.123245 -0.001892 0.789719 0.445141 -0.422131
0.003166 0.123245 -0.001892 0.856884 0.445153 -0.259978
-0.000232 0.130608 -0.000485 0.856884 0.445153 -0.259978
0.003376 0.123245 -0.001201 0.856884 0.445153 -0.259978
0.003376 0.123245 -0.001201 0.891123 0.445178 -0.087847
-0.000232 0.130608 -0.000485 0.891123 0.445178 -0.087847
0.003447 0.123246 -0.000483 0.891123 0.445178 -0.087847
0.003376 0.123245 -0.001201 -0.000421 -1.000000 0.000218
0.003447 0.123246 -0.000483 -0.000421 -1.000000 0.000218
0.003376 0.123246 0.000235 -0.000421 -1.000000 0.000218
0.003376 0.123246 0.000235 -0.000415 -1.000000 0.000176
0.003166 0.123246 0.000925 -0.000415 -1.000000 0.000176
0.002826 0.123246 0.001561 -0.000415 -1.000000 0.000176
0.002826 0.123246 0.001561 -0.000413 -1.000000 0.000115
0.002369 0.123246 0.002119 -0.000413 -1.000000 0.000115
0.001811 0.123247 0.002577 -0.000413 -1.000000 0.000115
0.001811 0.123247 0.002577 -0.000314 -1.000000 0.000244
0.001175 0.123247 0.002917 -0.000314 -1.000000 0.000244
0.000484 0.123247 0.003126 -0.000314 -1.000000 0.000244
0.000484 0.123247 0.003126 -0.000322 -1.000000 0.000211
-0.000234 0.123248 0.003197 -0.000322 -1.000000 0.000211
-0.000952 0.123248 0.003126 -0.000322 -1.000000 0.000211
-0.000952 0.123248 0.003126 -0.000372 -1.000000 0.000302
-0.001642 0.123248 0.002917 -0.000372 -1.000000 0.000302
-0.002279 0.123248 0.002577 -0.000372 -1.000000 0.000302
-0.002279 0.123248 0.002577 -0.000390 -1.000000 0.000280
-0.002837 0.123248 0.002119 -0.000390 -1.000000 0.000280
-0.003294 0.123248 0.001561 -0.000390 -1.000000 0.000280
-0.003294 0.123248 0.001561 -0.000315 -1.000000 0.000203
-0.003634 0.123248 0.000925 -0.000315 -1.000000 0.000203
-0.003844 0.123248 0.000235 -0.000315 -1.000000 0.000203
-0.003844 0.123248 0.000235 -0.000421 -1.000000 0.000218
-0.003915 0.123248 -0.000483 -0.000421 -1.000000 0.000218
-0.003844 0.123248 -0.001201 -0.000421 -1.000000 0.000218
-0.003844 0.123248 -0.001201 -0.000415 -1.000000 0.000176
-0.003634 0.123248 -0.001892 -0.000415 -1.000000 0.000176
-0.003294 0.123247 -0.002528 -0.000415 -1.000000 0.000176
-0.003294 0.123247 -0.002528 -0.000372 -1.000000 0.000149
-0.002837 0.123247 -0.003086 -0.000372 -1.000000 0.000149
-0.002279 0.123247 -0.003544 -0.000372 -1.000000 0.000149
-0.002279 0.123247 -0.003544 -0.000339 -1.000000 0.000198
-0.001642 0.123246 -0.003884 -0.000339 -1.000000 0.000198
-0.000952 0.123246 -0.004093 -0.000339 -1.000000 0.000198
-0.000952 0.123246 -0.004093 -0.000322 -1.000000 0.000211
-0.000234 0.123246 -0.004164 -0.000322 -1.000000 0.000211
0.000484 0.123246 -0.004093 -0.000322 -1.000000 0.000211
0.000484 0.123246 -0.004093 -0.000403 -1.000000 0.000403
0.001175 0.123246 -0.003884 -0.000403 -1.000000 0.000403
0.001811 0.123245 -0.003544 -0.000403 -1.000000 0.000403
0.001811 0.123245 -0.003544 -0.000472 -1.000000 0.000347
0.002369 0.123245 -0.003086 -0.000472 -1.000000 0.000347
0.002826 0.123245 -0.002528 -0.000472 -1.000000 0.000347
0.002826 0.123245 -0.002528 -0.000315 -1.000000 0.000203
0.003166 0.123245 -0.001892 -0.000315 -1.000000 0.000203
0.003376 0.123245 -0.001201 -0.000315 -1.000000 0.000203
0.003376 0.123245 -0.001201 -0.000314 -1.000000 0.000218
0.003376 0.123246 0.000235 -0.000314 -1.000000 0.000218
0.002826 0.123246 0.001561 -0.000314 -1.000000 0.000218
0.002826 0.123246 0.001561 -0.000336 -1.000000 0.000192
0.001811 0.123247 0.002577 -0.000336 -1.000000 0.000192
0.000484 0.123247 0.003126 -0.000336 -1.000000 0.000192
0.000484 0.123247 0.003126 -0.000322 -1.000000 0.000180
-0.000952 0.123248 0.003126 -0.000322 -1.000000 0.000180
-0.002279 0.123248 0.002577 -0.000322 -1.000000 0.000180
-0.002279 0.123248 0.002577 -0.000312 -1.000000 0.000202
-0.003294 0.123248 0.001561 -0.000312 -1.000000 0.000202
-0.003844 0.123248 0.000235 -0.000312 -1.000000 0.000202
-0.003844 0.123248 0.000235 -0.000314 -1.000000 0.000218
-0.003844 0.123248 -0.001201 -0.000314 -1.000000 0.000218
-0.003294 0.123247 -0.002528 -0.000314 -1.000000 0.000218
-0.003294 0.123247 -0.002528 -0.000351 -1.000000 0.000170
-0.002279 0.123247 -0.003544 -0.000351 -1.000000 0.000170
-0.000952 0.123246 -0.004093 -0.000351 -1.000000 0.000170
-0.000952 0.123246 -0.004093 -0.000322 -1.000000 0.000207
0.000484 0.123246 -0.004093 -0.000322 -1.000000 0.000207
0.001811 0.123245 -0.003544 -0.000322 -1.000000 0.000207
0.001811 0.123245 -0.003544 -0.000338 -1.000000 0.000213
0.002826 0.123245 -0.002528 -0.000338 -1.000000 0.000213
0.003376 0.123245 -0.001201 -0.000338 -1.000000 0.000213
0.003376 0.123245 -0.001201 -0.000319 -1.000000 0.000217
0.002826 0.123246 0.001561 -0.000319 -1.000000 0.000217
0.000484 0.123247 0.003126 -0.000319 -1.000000 0.000217
0.000484 0.123247 0.003126 -0.000328 -1.000000 0.000213
-0.002279 0.123248 0.002577 -0.000328 -1.000000 0.000213
-0.003844 0.123248 0.000235 -0.000328 -1.000000 0.000213
-0.003844 0.123248 0.000235 -0.000319 -1.000000 0.000217
-0.003294 0.123247 -0.002528 -0.000319 -1.000000 0.000217
-0.000952 0.123246 -0.004093 -0.000319 -1.000000 0.000217
-0.000952 0.123246 -0.004093 -0.000321 -1.000000 0.000201
0.001811 0.123245 -0.003544 -0.000321 -1.000000 0.000201
0.003376 0.123245 -0.001201 -0.000321 -1.000000 0.000201
0.003376 0.123245 -0.001201 -0.000327 -1.000000 0.000212
0.000484 0.123247 0.003126 -0.000327 -1.000000 0.000212
-0.003844 0.123248 0.000235 -0.000327 -1.000000 0.000212
-0.000952 0.123246 -0.004093 -0.000327 -1.000000 0.000212
-0.126616 0.000901 0.000162 -0.005832 0.000004 0.999983
-0.126616 -0.000901 0.000162 -0.005832 0.000004 0.999983
0.000895 -0.000901 0.000906 -0.005832 0.000004 0.999983
0.000895 0.000901 0.000906 -0.005832 0.000004 0.999983
-0.126606 0.000901 -0.001639 0.005832 0.000004 -0.999983
0.000906 0.000901 -0.000895 0.005832 0.000004 -0.999983
0.000906 -0.000901 -0.000895 0.005832 0.000004 -0.999983
-0.126606 -0.000901 -0.001639 0.005832 0.000004 -0.999983
-0.126616 0.000901 0.000162 -0.999983 -0.000004 -0.005819
-0.126606 0.000901 -0.001639 -0.999983 -0.000004 -0.005819
-0.126606 -0.000901 -0.001639 -0.999983 -0.000004 -0.005819
-0.126616 -0.000901 0.000162 -0.999983 -0.000004 -0.005819
-0.126616 -0.000901 0.000162 0.000000 -1.000000 0.000000
-0.126606 -0.000901 -0.001639 0.000000 -1.000000 0.000000
0.000906 -0.000901 -0.000895 0.000000 -1.000000 0.000000
0.000895 -0.000901 0.000906 0.000000 -1.000000 0.000000
0.000895 -0.000901 0.000906 0.999983 0.000000 0.005832
0.000906 -0.000901 -0.000895 0.999983 0.000000 0.005832
0.000906 0.000901 -0.000895 0.999983 0.000000 0.005832
0.000895 0.000901 0.000906 0.999983 0.000000 0.005832
-0.126606 0.000901 -0.001639 -0.000000 1.000000 -0.000000
-0.126616 0.000901 0.000162 -0.000000 1.000000 -0.000000
0.000895 0.000901 0.000906 -0.000000 1.000000 -0.000000
0.000906 0.000901 -0.000895 -0.000000 1.000000 -0.000000
0.000963 -0.000013 -0.126616 0.000003 0.999974 -0.007215
-0.000839 -0.000013 -0.126617 0.000003 0.999974 -0.007215
-0.000901 0.000907 0.000894 0.000003 0.999974 -0.007215
0.000900 0.000907 0.000895 0.000003 0.999974 -0.007215
0.000963 -0.001814 -0.126603 -0.000003 -0.999974 0.007215
0.000900 -0.000894 0.000908 -0.000003 -0.999974 0.007215
-0.000901 -0.000894 0.000907 -0.000003 -0.999974 0.007215
-0.000839 -0.001814 -0.126604 -0.000003 -0.999974 0.007215
0.000963 -0.000013 -0.126616 0.000480 -0.007205 -0.999974
0.000963 -0.001814 -0.126603 0.000480 -0.007205 -0.999974
-0.000839 -0.001814 -0.126604 0.000480 -0.007205 -0.999974
-0.000839 -0.000013 -0.126617 0.000480 -0.007205 -0.999974
-0.000839 -0.000013 -0.126617 -1.000000 -0.000001 -0.000488
-0.000839 -0.001814 -0.126604 -1.000000 -0.000001 -0.000488
-0.000901 -0.000894 0.000907 -1.000000 -0.000001 -0.000488
-0.000901 0.000907 0.000894 -1.000000 -0.000001 -0.000488
-0.000901 0.000907 0.000894 -0.000492 0.007217 0.999974
-0.000901 -0.000894 0.000907 -0.000492 0.007217 0.999974
0.000900 -0.000894 0.000908 -0.000492 0.007217 0.999974
0.000900 0.000907 0.000895 -0.000492 0.007217 0.999974
0.000963 -0.001814 -0.126603 1.000000 0.000000 0.000488
0.000963 -0.000013 -0.126616 1.000000 0.000000 0.000488
0.000900 0.000907 0.000895 1.000000 0.000000 0.000488
0.000900 -0.000894 0.000908 1.000000 0.000000 0.000488
0.004105 -0.001323 -0.125121 0.891122 0.087814 -0.445186
0.000426 -0.001323 -0.132484 0.891122 0.087814 -0.445186
0.004034 -0.000605 -0.125121 0.891122 0.087814 -0.445186
0.004034 -0.000605 -0.125121 0.856885 0.259933 -0.445177
0.000426 -0.001323 -0.132484 0.856885 0.259933 -0.445177
0.003824 0.000085 -0.125121 0.856885 0.259933 -0.445177
0.003824 0.000085 -0.125121 0.789717 0.422092 -0.445180
0.000426 -0.001323 -0.132484 0.789717 0.422092 -0.445180
0.003484 0.000721 -0.125121 0.789717 0.422092 -0.445180
0.003484 0.000721 -0.125121 0.692215 0.568015 -0.445194
0.000426 -0.001323 -0.132484 0.692215 0.568015 -0.445194
0.003027 0.001279 -0.125121 0.692215 0.568015 -0.445194
0.003027 0.001279 -0.125121 0.568106 0.692123 -0.445220
0.000426 -0.001323 -0.132484 0.568106 0.692123 -0.445220
0.002469 0.001737 -0.125122 0.568106 0.692123 -0.445220
0.002469 0.001737 -0.125122 0.422188 0.789623 -0.445257
0.000426 -0.001323 -0.132484 0.422188 0.789623 -0.445257
0.001832 0.002077 -0.125122 0.422188 0.789623 -0.445257
0.001832 0.002077 -0.125122 0.260029 0.856791 -0.445302
0.000426 -0.001323 -0.132484 0.260029 0.856791 -0.445302
0.001142 0.002286 -0.125122 0.260029 0.856791 -0.445302
0.001142 0.002286 -0.125122 0.087897 0.891030 -0.445354
0.000426 -0.001323 -0.132484 0.087897 0.891030 -0.445354
0.000424 0.002357 -0.125122 0.087897 0.891030 -0.445354
0.000424 0.002357 -0.125122 -0.087602 0.891030 -0.445412
0.000426 -0.001323 -0.132484 -0.087602 0.891030 -0.445412
-0.000294 0.002286 -0.125122 -0.087602 0.891030 -0.445412
-0.000294 0.002286 -0.125122 -0.259750 0.856788 -0.445472
0.000426 -0.001323 -0.132484 -0.259750 0.856788 -0.445472
-0.000985 0.002077 -0.125123 -0.259750 0.856788 -0.445472
-0.000985 0.002077 -0.125123 -0.421887 0.789628 -0.445533
0.000426 -0.001323 -0.132484 -0.421887 0.789628 -0.445533
-0.001621 0.001737 -0.125123 -0.421887 0.789628 -0.445533
-0.001621 0.001737 -0.125123 -0.567818 0.692120 -0.445592
0.000426 -0.001323 -0.132484 -0.567818 0.692120 -0.445592
-0.002179 0.001279 -0.125123 -0.567818 0.692120 -0.445592
-0.002179 0.001279 -0.125123 -0.691924 0.568014 -0.445647
0.000426 -0.001323 -0.132484 -0.691924 0.568014 -0.445647
-0.002636 0.000721 -0.125123 -0.691924 0.568014 -0.445647
-0.002636 0.000721 -0.125123 -0.789425 0.422092 -0.445696
0.000426 -0.001323 -0.132484 -0.789425 0.422092 -0.445696
-0.002976 0.000085 -0.125124 -0.789425 0.422092 -0.445696
-0.002976 0.000085 -0.125124 -0.856592 0.259940 -0.445738
0.000426 -0.001323 -0.132484 -0.856592 0.259940 -0.445738
-0.003186 -0.000605 -0.125124 -0.856592 0.259940 -0.445738
-0.003186 -0.000605 -0.125124 -0.890831 0.087804 -0.445769
0.000426 -0.001323 -0.132484 -0.890831 0.087804 -0.445769
-0.003257 -0.001323 -0.125124 -0.890831 0.087804 -0.445769
-0.003257 -0.001323 -0.125124 -0.890831 -0.087703 -0.445790
0.000426 -0.001323 -0.132484 -0.890831 -0.087703 -0.445790
-0.003186 -0.002041 -0.125124 -0.890831 -0.087703 -0.445790
-0.003186 -0.002041 -0.125124 -0.856592 -0.259835 -0.445799
0.000426 -0.001323 -0.132484 -0.856592 -0.259835 -0.445799
-0.002976 -0.002732 -0.125124 -0.856592 -0.259835 -0.445799
-0.002976 -0.002732 -0.125124 -0.789430 -0.421980 -0.445796
0.000426 -0.001323 -0.132484 -0.789430 -0.421980 -0.445796
-0.002636 -0.003368 -0.125124 -0.789430 -0.421980 -0.445796
-0.002636 -0.003368 -0.125124 -0.691918 -0.567915 -0.445782
0.000426 -0.001323 -0.132484 -0.691918 -0.567915 -0.445782
-0.002179 -0.003926 -0.125124 -0.691918 -0.567915 -0.445782
-0.002179 -0.003926 -0.125124 -0.567823 -0.692011 -0.445756
0.000426 -0.001323 -0.132484 -0.567823 -0.692011 -0.445756
-0.001621 -0.004384 -0.125124 -0.567823 -0.692011 -0.445756
-0.001621 -0.004384 -0.125124 -0.421883 -0.789524 -0.445719
0.000426 -0.001323 -0.132484 -0.421883 -0.789524 -0.445719
-0.000985 -0.004724 -0.125123 -0.421883 -0.789524 -0.445719
-0.000985 -0.004724 -0.125123 -0.259746 -0.856683 -0.445674
0.000426 -0.001323 -0.132484 -0.259746 -0.856683 -0.445674
-0.000294 -0.004933 -0.125123 -0.259746 -0.856683 -0.445674
-0.000294 -0.004933 -0.125123 -0.087609 -0.890924 -0.445622
0.000426 -0.001323 -0.132484 -0.087609 -0.890924 -0.445622
0.000424 -0.005004 -0.125123 -0.087609 -0.890924 -0.445622
0.000424 -0.005004 -0.125123 0.087907 -0.890923 -0.445565
0.000426 -0.001323 -0.132484 0.087907 -0.890923 -0.445565
0.001142 -0.004933 -0.125123 0.087907 -0.890923 -0.445565
0.001142 -0.004933 -0.125123 0.260037 -0.856684 -0.445504
0.000426 -0.001323 -0.132484 0.260037 -0.856684 -0.445504
0.001832 -0.004724 -0.125122 0.260037 -0.856684 -0.445504
0.001832 -0.004724 -0.125122 0.422177 -0.789523 -0.445443
0.000426 -0.001323 -0.132484 0.422177 -0.789523 -0.445443
0.002469 -0.004384 -0.125122 0.422177 -0.789523 -0.445443
0.002469 -0.004384 -0.125122 0.568112 -0.692013 -0.445384
0.000426 -0.001323 -0.132484 0.568112 -0.692013 -0.445384
0.003027 -0.003926 -0.125122 0.568112 -0.692013 -0.445384
0.003027 -0.003926 -0.125122 0.692216 -0.567908 -0.445328
0.000426 -0.001323 -0.132484 0.692216 -0.567908 -0.445328
0.003484 -0.003368 -0.125122 0.692216 -0.567908 -0.445328
0.003484 -0.003368 -0.125122 0.789718 -0.421986 -0.445279
0.000426 -0.001323 -0.132484 0.789718 -0.421986 -0.445279
0.003824 -0.002732 -0.125122 0.789718 -0.421986 -0.445279
0.003824 -0.002732 -0.125122 0.856883 -0.259835 -0.445238
0.000426 -0.001323 -0.132484 0.856883 -0.259835 -0.445238
0.004034 -0.002041 -0.125121 0.856883 -0.259835 -0.445238
0.004034 -0.002041 -0.125121 0.891122 -0.087703 -0.445207
0.000426 -0.001323 -0.132484 0.891122 -0.087703 -0.445207
0.004105 -0.001323 -0.125121 0.891122 -0.087703 -0.445207
0.004034 -0.002041 -0.125121 -0.000211 -0.000125 1.000000
0.004105 -0.001323 -0.125121 -0.000211 -0.000125 1.000000
0.004034 -0.000605 -0.125121 -0.000211 -0.000125 1.000000
0.004034 -0.000605 -0.125121 -0.000203 -0.000061 1.000000
0.003824 0.000085 -0.125121 -0.000203 -0.000061 1.000000
0.003484 0.000721 -0.125121 -0.000203 -0.000061 1.000000
0.003484 0.000721 -0.125121 -0.000252 -0.000046 1.000000
0.003027 0.001279 -0.125121 -0.000252 -0.000046 1.000000
0.002469 0.001737 -0.125122 -0.000252 -0.000046 1.000000
0.002469 0.001737 -0.125122 -0.000280 0.000002 1.000000
0.001832 0.002077 -0.125122 -0.000280 0.000002 1.000000
0.001142 0.002286 -0.125122 -0.000280 0.000002 1.000000
0.001142 0.002286 -0.125122 -0.000332 -0.000211 1.000000
0.000424 0.002357 -0.125122 -0.000332 -0.000211 1.000000
-0.000294 0.002286 -0.125122 -0.000332 -0.000211 1.000000
-0.000294 0.002286 -0.125122 -0.000276 -0.000228 1.000000
-0.000985 0.002077 -0.125123 -0.000276 -0.000228 1.000000
-0.001621 0.001737 -0.125123 -0.000276 -0.000228 1.000000
-0.001621 0.001737 -0.125123 -0.000369 -0.000071 1.000000
-0.002179 0.001279 -0.125123 -0.000369 -0.000071 1.000000
-0.002636 0.000721 -0.125123 -0.000369 -0.000071 1.000000
-0.002636 0.000721 -0.125123 -0.000383 -0.000100 1.000000
-0.002976 0.000085 -0.125124 -0.000383 -0.000100 1.000000
-0.003186 -0.000605 -0.125124 -0.000383 -0.000100 1.000000
-0.003186 -0.000605 -0.125124 -0.000316 -0.000114 1.000000
-0.003257 -0.001323 -0.125124 -0.000316 -0.000114 1.000000
-0.003186 -0.002041 -0.125124 -0.000316 -0.000114 1.000000
-0.003186 -0.002041 -0.125124 -0.000296 -0.000111 1.000000
-0.002976 -0.002732 -0.125124 -0.000296 -0.000111 1.000000
-0.002636 -0.003368 -0.125124 -0.000296 -0.000111 1.000000
-0.002636 -0.003368 -0.125124 -0.000252 -0.000046 1.000000
-0.002179 -0.003926 -0.125124 -0.000252 -0.000046 1.000000
-0.001621 -0.004384 -0.125124 -0.000252 -0.000046 1.000000
-0.001621 -0.004384 -0.125124 -0.000280 0.000002 1.000000
-0.000985 -0.004724 -0.125123 -0.000280 0.000002 1.000000
-0.000294 -0.004933 -0.125123 -0.000280 0.000002 1.000000
-0.000294 -0.004933 -0.125123 -0.000332 -0.000211 1.000000
0.000424 -0.005004 -0.125123 -0.000332 -0.000211 1.000000
0.001142 -0.004933 -0.125123 -0.000332 -0.000211 1.000000
0.001142 -0.004933 -0.125123 -0.000357 -0.000034 1.000000
0.001832 -0.004724 -0.125122 -0.000357 -0.000034 1.000000
0.002469 -0.004384 -0.125122 -0.000357 -0.000034 1.000000
0.002469 -0.004384 -0.125122 -0.000302 -0.000153 1.000000
0.003027 -0.003926 -0.125122 -0.000302 -0.000153 1.000000
0.003484 -0.003368 -0.125122 -0.000302 -0.000153 1.000000
0.003484 -0.003368 -0.125122 -0.000282 -0.000130 1.000000
0.003824 -0.002732 -0.125122 -0.000282 -0.000130 1.000000
0.004034 -0.002041 -0.125121 -0.000282 -0.000130 1.000000
0.004034 -0.002041 -0.125121 -0.000355 -0.000125 1.000000
0.004034 -0.000605 -0.125121 -0.000355 -0.000125 1.000000
0.003484 0.000721 -0.125121 -0.000355 -0.000125 1.000000
0.003484 0.000721 -0.125121 -0.000334 -0.000129 1.000000
0.002469 0.001737 -0.125122 -0.000334 -0.000129 1.000000
0.001142 0.002286 -0.125122 -0.000334 -0.000129 1.000000
0.001142 0.002286 -0.125122 -0.000332 -0.000093 1.000000
-0.000294 0.002286 -0.125122 -0.000332 -0.000093 1.000000
-0.001621 0.001737 -0.125123 -0.000332 -0.000093 1.000000
-0.001621 0.001737 -0.125123 -0.000311 -0.000130 1.000000
-0.002636 0.000721 -0.125123 -0.000311 -0.000130 1.000000
-0.003186 -0.000605 -0.125124 -0.000311 -0.000130 1.000000
-0.003186 -0.000605 -0.125124 -0.000303 -0.000114 1.000000
-0.003186 -0.002041 -0.125124 -0.000303 -0.000114 1.000000
-0.002636 -0.003368 -0.125124 -0.000303 -0.000114 1.000000
-0.002636 -0.003368 -0.125124 -0.000334 -0.000129 1.000000
-0.001621 -0.004384 -0.125124 -0.000334 -0.000129 1.000000
-0.000294 -0.004933 -0.125123 -0.000334 -0.000129 1.000000
-0.000294 -0.004933 -0.125123 -0.000332 -0.000093 1.000000
0.001142 -0.004933 -0.125123 -0.000332 -0.000093 1.000000
0.002469 -0.004384 -0.125122 -0.000332 -0.000093 1.000000
0.002469 -0.004384 -0.125122 -0.000355 -0.000100 1.000000
0.003484 -0.003368 -0.125122 -0.000355 -0.000100 1.000000
0.004034 -0.002041 -0.125121 -0.000355 -0.000100 1.000000
0.004034 -0.002041 -0.125121 -0.000328 -0.000119 1.000000
0.003484 0.000721 -0.125121 -0.000328 -0.000119 1.000000
0.001142 0.002286 -0.125122 -0.000328 -0.000119 1.000000
0.001142 0.002286 -0.125122 -0.000327 -0.000119 1.000000
-0.001621 0.001737 -0.125123 -0.000327 -0.000119 1.000000
-0.003186 -0.000605 -0.125124 -0.000327 -0.000119 1.000000
-0.003186 -0.000605 -0.125124 -0.000328 -0.000119 1.000000
-0.002636 -0.003368 -0.125124 -0.000328 -0.000119 1.000000
-0.000294 -0.004933 -0.125123 -0.000328 -0.000119 1.000000
-0.000294 -0.004933 -0.125123 -0.000327 -0.000119 1.000000
0.002469 -0.004384 -0.125122 -0.000327 -0.000119 1.000000
0.004034 -0.002041 -0.125121 -0.000327 -0.000119 1.000000
3 0 1 2
3 3 4 5
3 6 7 8
3 9 10 11
3 12 13 14
3 15 16 17
3 18 19 20
3 21 22 23
3 24 25 26
3 27 28 29
3 30 31 32
3 33 34 35
3 36 37 38
3 39 40 41
3 42 43 44
3 45 46 47
3 48 49 50
3 51 52 53
3 54 55 56
3 57 58 59
3 60 61 62
3 63 64 65
3 66 67 68
3 69 70 71
3 72 73 74
3 75 76 77
3 78 79 80
3 81 82 83
3 84 85 86
3 87 88 89
3 90 91 92
3 93 94 95
3 96 97 98
3 99 100 101
3 102 103 104
3 105 106 107
3 108 109 110
3 111 112 113
3 114 115 116
3 117 118 119
3 120 121 122
3 123 124 125
3 126 127 128
3 129 130 131
3 132 133 134
3 135 136 137
3 138 139 140
3 141 142 143
3 144 145 146
3 147 148 149
3 150 151 152
3 153 154 155
3 156 157 158
3 159 160 161
3 162 163 164
3 165 166 167
3 168 169 170
3 171 172 173
3 174 175 176
3 177 178 179
3 180 181 182
3 174 176 183
4 184 185 186 187
4 188 189 190 191
4 192 193 194 195
4 196 197 198 199
4 200 201 202 203
4 204 205 206 207
3 208 209 210
3 211 212 213
3 214 215 216
3 217 218 219
3 220 221 222
3 223 224 225
3 226 227 228
3 229 230 231
3 232 233 234
3 235 236 237
3 238 239 240
3 241 242 243
3 244 245 246
3 247 248 249
3 250 251 252
3 253 254 255
3 256 257 258
3 259 260 261
3 262 263 264
3 265 266 267
3 268 269 270
3 271 272 273
3 274 275 276
3 277 278 279
3 280 281 282
3 283 284 285
3 286 287 288
3 289 290 291
3 292 293 294
3 295 296 297
3 298 299 300
3 301 302 303
3 304 305 306
3 307 308 309
3 310 311 312
3 313 314 315
3 316 317 318
3 319 320 321
3 322 323 324
3 325 326 327
3 328 329 330
3 331 332 333
3 334 335 336
3 337 338 339
3 340 341 342
3 343 344 345
3 346 347 348
3 349 350 351
3 352 353 354
3 355 356 357
3 358 359 360
3 361 362 363
3 364 365 366
3 367 368 369
3 370 371 372
3 373 374 375
3 376 377 378
3 379 380 381
3 382 383 384
3 385 386 387
3 388 389 390
3 390 391 388
4 392 393 394 395
4 396 397 398 399
4 400 401 402 403
4 404 405 406 407
4 408 409 410 411
4 412 413 414 415
4 416 417 418 419
4 420 421 422 423
4 424 425 426 427
4 428 429 430 431
4 432 433 434 435
4 436 437 438 439
3 440 441 442
3 443 444 445
3 446 447 448
3 449 450 451
3 452 453 454
3 455 456 457
3 458 459 460
3 461 462 463
3 464 465 466
3 467 468 469
3 470 471 472
3 473 474 475
3 476 477 478
3 479 480 481
3 482 483 484
3 485 486 487
3 488 489 490
3 491 492 493
3 494 495 496
3 497 498 499
3 500 501 502
3 503 504 505
3 506 507 508
3 509 510 511
3 512 513 514
3 515 516 517
3 518 519 520
3 521 522 523
3 524 525 526
3 527 528 529
3 530 531 532
3 533 534 535
3 536 537 538
3 539 540 541
3 542 543 544
3 545 546 547
3 548 549 550
3 551 552 553
3 554 555 556
3 557 558 559
3 560 561 562
3 563 564 565
3 566 567 568
3 569 570 571
3 572 573 574
3 575 576 577
3 578 579 580
3 581 582 583
3 584 585 586
3 587 588 589
3 590 591 592
3 593 594 595
3 596 597 598
3 599 600 601
3 602 603 604
3 605 606 607
3 608 609 610
3 611 612 613
3 614 615 616
3 617 618 619
3 619 611 613
3 613 617 619
